<svg xmlns="http://www.w3.org/2000/svg" width="15.558" height="15.558" viewBox="0 0 15.558 15.558"><defs><style>.a{fill:#fff;}</style></defs><path class="a" d="M15.344,4.943,8.051.082a.485.485,0,0,0-.539,0L.219,4.943a.486.486,0,0,0-.217.4V14.1a1.46,1.46,0,0,0,1.459,1.459H14.1A1.46,1.46,0,0,0,15.561,14.1V5.348a.486.486,0,0,0-.217-.4ZM7.782,1.071,14.2,5.348,7.782,9.625,1.366,5.348ZM14.1,14.585H1.462A.487.487,0,0,1,.975,14.1V6.256l6.537,4.358a.486.486,0,0,0,.539,0l6.537-4.358V14.1A.486.486,0,0,1,14.1,14.585Z" transform="translate(-0.003 0)"/></svg>