<svg xmlns="http://www.w3.org/2000/svg" width="72.29" height="72.29" viewBox="0 0 72.29 72.29"><defs><style>.a,.d{fill:none;}.a{stroke:#f3bb33;}.b{fill:#f3bb33;}.c{stroke:none;}</style></defs><g transform="translate(-1346 -1676)"><g transform="translate(-158 724)"><g transform="translate(1504 952)"><g class="a" transform="translate(0 0)"><ellipse class="c" cx="36.145" cy="36.145" rx="36.145" ry="36.145"/><ellipse class="d" cx="36.145" cy="36.145" rx="35.645" ry="35.645"/></g></g></g><g transform="translate(1365 1698)"><path class="b" d="M33.856,51.256a14.471,14.471,0,0,1-4,1.1,6.9,6.9,0,0,0,3.053-3.836,13.871,13.871,0,0,1-4.4,1.68A6.94,6.94,0,0,0,16.5,54.943a7.147,7.147,0,0,0,.161,1.583,19.646,19.646,0,0,1-14.306-7.26A6.943,6.943,0,0,0,4.49,58.542a6.854,6.854,0,0,1-3.136-.855v.076a6.973,6.973,0,0,0,5.561,6.82,6.927,6.927,0,0,1-1.82.229,6.137,6.137,0,0,1-1.314-.118,7.007,7.007,0,0,0,6.485,4.835,13.946,13.946,0,0,1-8.606,2.96A13,13,0,0,1,0,72.393a19.54,19.54,0,0,0,10.648,3.115c12.772,0,19.755-10.58,19.755-19.751,0-.307-.011-.6-.025-.9A13.846,13.846,0,0,0,33.856,51.256Z" transform="translate(0 -48)"/></g></g></svg>