<svg xmlns="http://www.w3.org/2000/svg" width="72.29" height="72.29" viewBox="0 0 72.29 72.29"><defs><style>.a,.d{fill:none;}.a{stroke:#f3bb33;}.b{fill:#f3bb33;}.c{stroke:none;}</style></defs><g transform="translate(-1448 -1676)"><g transform="translate(1448 1676)"><g class="a" transform="translate(0 0)"><ellipse class="c" cx="36.145" cy="36.145" rx="36.145" ry="36.145"/><ellipse class="d" cx="36.145" cy="36.145" rx="35.645" ry="35.645"/></g></g><path class="b" d="M23.361,23.329h.006V14.886c0-4.13-.889-7.312-5.717-7.312a5.012,5.012,0,0,0-4.515,2.481h-.067V7.96H8.489V23.328h4.767v-7.61c0-2,.38-3.941,2.861-3.941,2.445,0,2.481,2.287,2.481,4.07v7.482Z" transform="translate(1472.653 1700.691)"/><path class="b" d="M.4,7.977H5.169V23.345H.4Z" transform="translate(1472.984 1700.674)"/><path class="b" d="M2.764,0A2.777,2.777,0,1,0,5.529,2.764,2.765,2.765,0,0,0,2.764,0Z" transform="translate(1473 1701)"/></g></svg>