<svg xmlns="http://www.w3.org/2000/svg" width="47" height="47" viewBox="0 0 47 47"><defs><style>.a{fill:none;}.b{fill:#4caf50;}.c{fill:#fafafa;}.d,.e{stroke:none;}.e{fill:#f3bb33;}</style></defs><g transform="translate(0.235)"><g class="a" transform="translate(-0.235)"><path class="d" d="M23.5,0A23.5,23.5,0,1,1,0,23.5,23.5,23.5,0,0,1,23.5,0Z"/><path class="e" d="M 23.5 1 C 20.46208000183105 1 17.51556015014648 1.594760894775391 14.74229049682617 2.767749786376953 C 12.06312942504883 3.90093994140625 9.656780242919922 5.523410797119141 7.590099334716797 7.590099334716797 C 5.523410797119141 9.656780242919922 3.90093994140625 12.06312942504883 2.767749786376953 14.74229049682617 C 1.594760894775391 17.51556015014648 1 20.46208000183105 1 23.5 C 1 26.53791999816895 1.594760894775391 29.48443984985352 2.767749786376953 32.25770950317383 C 3.90093994140625 34.93687057495117 5.523410797119141 37.34321975708008 7.590099334716797 39.4099006652832 C 9.656780242919922 41.47658920288086 12.06312942504883 43.09906005859375 14.74229049682617 44.23225021362305 C 17.51556015014648 45.40523910522461 20.46208000183105 46 23.5 46 C 26.53791999816895 46 29.48443984985352 45.40523910522461 32.25770950317383 44.23225021362305 C 34.93687057495117 43.09906005859375 37.34321975708008 41.47658920288086 39.4099006652832 39.4099006652832 C 41.47658920288086 37.34321975708008 43.09906005859375 34.93687057495117 44.23225021362305 32.25770950317383 C 45.40523910522461 29.48443984985352 46 26.53791999816895 46 23.5 C 46 20.46208000183105 45.40523910522461 17.51556015014648 44.23225021362305 14.74229049682617 C 43.09906005859375 12.06312942504883 41.47658920288086 9.656780242919922 39.4099006652832 7.590099334716797 C 37.34321975708008 5.523410797119141 34.93687057495117 3.90093994140625 32.25770950317383 2.767749786376953 C 29.48443984985352 1.594760894775391 26.53791999816895 1 23.5 1 M 23.5 0 C 36.47869110107422 0 47 10.52130889892578 47 23.5 C 47 36.47869110107422 36.47869110107422 47 23.5 47 C 10.52130889892578 47 0 36.47869110107422 0 23.5 C 0 10.52130889892578 10.52130889892578 0 23.5 0 Z"/></g><g transform="translate(9.4 9.4)"><path class="b" d="M13.555,0h-.007A13.543,13.543,0,0,0,2.58,21.495L.891,26.529,6.1,24.864A13.549,13.549,0,1,0,13.555,0Z"/><path class="c" d="M123.026,130.027a3.824,3.824,0,0,1-2.66,1.912c-.708.151-1.633.271-4.746-1.02-3.983-1.65-6.547-5.7-6.747-5.959a7.74,7.74,0,0,1-1.609-4.088,4.326,4.326,0,0,1,1.386-3.3,1.969,1.969,0,0,1,1.386-.486c.168,0,.318.008.454.015.4.017.6.041.861.669.327.788,1.123,2.732,1.218,2.932a.807.807,0,0,1,.058.733,2.342,2.342,0,0,1-.439.622c-.2.23-.39.407-.59.654-.183.215-.39.446-.159.844a12.028,12.028,0,0,0,2.2,2.732,9.963,9.963,0,0,0,3.178,1.96.857.857,0,0,0,.955-.151,16.4,16.4,0,0,0,1.059-1.4.756.756,0,0,1,.972-.295c.366.127,2.3,1.084,2.7,1.282s.661.295.757.462A3.375,3.375,0,0,1,123.026,130.027Z" transform="translate(-101.586 -110.89)"/></g></g></svg>