<svg xmlns="http://www.w3.org/2000/svg" width="72.29" height="72.29" viewBox="0 0 72.29 72.29"><defs><style>.a,.d{fill:none;}.a{stroke:#f3bb33;}.b{fill:#f3bb33;}.c{stroke:none;}</style></defs><g transform="translate(-1561 -1676)"><g transform="translate(1561 1676)"><g class="a" transform="translate(0 0)"><ellipse class="c" cx="36.145" cy="36.145" rx="36.145" ry="36.145"/><ellipse class="d" cx="36.145" cy="36.145" rx="35.645" ry="35.645"/></g></g><g transform="translate(525.437 1675)"><g transform="translate(1060.421 27.637)"><path class="b" d="M22.014,0H2.446A2.453,2.453,0,0,0,0,2.446V22.014A2.453,2.453,0,0,0,2.446,24.46H22.014a2.453,2.453,0,0,0,2.446-2.446V2.446A2.453,2.453,0,0,0,22.014,0ZM12.23,7.338A4.892,4.892,0,1,1,7.338,12.23,4.906,4.906,0,0,1,12.23,7.338ZM3.058,22.014a.578.578,0,0,1-.612-.612v-10.4H5.014a4.161,4.161,0,0,0-.122,1.223,7.338,7.338,0,1,0,14.676,0,4.161,4.161,0,0,0-.122-1.223h2.568V21.4a.578.578,0,0,1-.612.612ZM22.014,5.5a.578.578,0,0,1-.612.612H18.957a.578.578,0,0,1-.612-.612V3.058a.578.578,0,0,1,.612-.612H21.4a.578.578,0,0,1,.612.612Z"/></g></g></g></svg>