<svg xmlns="http://www.w3.org/2000/svg" width="55" height="55" viewBox="0 0 55 55"><defs><style>.a,.d{fill:none;}.a{stroke:#f3bb33;}.b{fill:#f3bb33;}.c{stroke:none;}</style></defs><g transform="translate(0 -0.497)"><g class="a" transform="translate(0 0.497)"><circle class="c" cx="27.5" cy="27.5" r="27.5"/><circle class="d" cx="27.5" cy="27.5" r="27"/></g><path class="b" d="M25.875,4H4.653a2.649,2.649,0,0,0-2.64,2.653L2,22.57a2.661,2.661,0,0,0,2.653,2.653H25.875a2.661,2.661,0,0,0,2.653-2.653V6.653A2.661,2.661,0,0,0,25.875,4Zm-.531,5.637L15.967,15.5a1.341,1.341,0,0,1-1.406,0L5.183,9.637a1.126,1.126,0,1,1,1.194-1.91l8.887,5.558,8.887-5.558a1.126,1.126,0,1,1,1.194,1.91Z" transform="translate(12.474 12.887)"/></g></svg>