<svg xmlns="http://www.w3.org/2000/svg" width="55" height="55" viewBox="0 0 55 55"><defs><style>.a,.d{fill:none;}.a{stroke:#f3bb33;}.b{fill:#f3bb33;}.c{stroke:none;}</style></defs><g transform="translate(0 0.105)"><g class="a" transform="translate(0 -0.106)"><circle class="c" cx="27.5" cy="27.5" r="27.5"/><circle class="d" cx="27.5" cy="27.5" r="27"/></g><path class="b" d="M24.052,18.322a14.162,14.162,0,0,1-4.369-.693,1.21,1.21,0,0,0-1.25.3L16.49,20.364a18.791,18.791,0,0,1-8.527-8.453l2.413-2.054a1.263,1.263,0,0,0,.3-1.262A13.8,13.8,0,0,1,9.98,4.225,1.236,1.236,0,0,0,8.755,3H4.473C3.8,3,3,3.3,3,4.225A21.227,21.227,0,0,0,24.052,25.277a1.3,1.3,0,0,0,1.225-1.46v-4.27a1.236,1.236,0,0,0-1.225-1.225Z" transform="translate(13.201 13.201)"/></g></svg>