<svg xmlns="http://www.w3.org/2000/svg" width="47" height="47" viewBox="0 0 47 47"><defs><style>.a{fill:none;}.b{fill:#1da1f2;}.c,.d{stroke:none;}.d{fill:#f3bb33;}</style></defs><g class="a"><path class="c" d="M23.5,0A23.5,23.5,0,1,1,0,23.5,23.5,23.5,0,0,1,23.5,0Z"/><path class="d" d="M 23.4999885559082 1 C 20.46206855773926 1 17.51555824279785 1.594757080078125 14.74228668212891 2.767749786376953 C 12.06311798095703 3.90093994140625 9.656780242919922 5.523406982421875 7.590099334716797 7.590099334716797 C 5.523406982421875 9.656780242919922 3.90093994140625 12.06311798095703 2.767749786376953 14.74228668212891 C 1.594757080078125 17.51555824279785 1 20.46206855773926 1 23.4999885559082 C 1 26.53790855407715 1.594757080078125 29.48441886901855 2.767749786376953 32.2576904296875 C 3.90093994140625 34.93685913085938 5.523406982421875 37.34320068359375 7.590099334716797 39.40987777709961 C 9.656780242919922 41.47657012939453 12.06311798095703 43.09903717041016 14.74228668212891 44.23222732543945 C 17.51555824279785 45.40522003173828 20.46206855773926 45.99997711181641 23.4999885559082 45.99997711181641 C 26.53790855407715 45.99997711181641 29.48441886901855 45.40522003173828 32.2576904296875 44.23222732543945 C 34.93685913085938 43.09903717041016 37.34320068359375 41.47657012939453 39.40987777709961 39.40987777709961 C 41.47657012939453 37.34320068359375 43.09903717041016 34.93685913085938 44.23222732543945 32.2576904296875 C 45.40522003173828 29.48441886901855 45.99997711181641 26.53790855407715 45.99997711181641 23.4999885559082 C 45.99997711181641 20.46206855773926 45.40522003173828 17.51555824279785 44.23222732543945 14.74228668212891 C 43.09903717041016 12.06311798095703 41.47657012939453 9.656780242919922 39.40987777709961 7.590099334716797 C 37.34320068359375 5.523406982421875 34.93685913085938 3.90093994140625 32.2576904296875 2.767749786376953 C 29.48441886901855 1.594757080078125 26.53790855407715 1 23.4999885559082 1 M 23.4999885559082 0 C 36.47866821289062 0 46.99997711181641 10.52130889892578 46.99997711181641 23.4999885559082 C 46.99997711181641 36.47866821289062 36.47866821289062 46.99997711181641 23.4999885559082 46.99997711181641 C 10.52130889892578 46.99997711181641 0 36.47866821289062 0 23.4999885559082 C 0 10.52130889892578 10.52130889892578 0 23.4999885559082 0 Z"/></g><path class="b" d="M8.589,22.695A15.834,15.834,0,0,0,24.531,6.753q0-.364-.016-.724a11.4,11.4,0,0,0,2.795-2.9,11.177,11.177,0,0,1-3.218.882A5.623,5.623,0,0,0,26.556.91,11.241,11.241,0,0,1,23,2.27,5.608,5.608,0,0,0,13.45,7.38,15.909,15.909,0,0,1,1.9,1.526a5.608,5.608,0,0,0,1.735,7.48,5.56,5.56,0,0,1-2.538-.7c0,.024,0,.046,0,.071a5.6,5.6,0,0,0,4.5,5.493,5.6,5.6,0,0,1-2.531.1A5.609,5.609,0,0,0,8.3,17.857a11.241,11.241,0,0,1-6.959,2.4A11.425,11.425,0,0,1,0,20.178a15.861,15.861,0,0,0,8.589,2.517" transform="translate(9.4 11.586)"/></svg>