<svg xmlns="http://www.w3.org/2000/svg" width="47" height="47" viewBox="0 0 47 47"><defs><style>.a{fill:none;}.b{fill:#385c8e;}.c,.d{stroke:none;}.d{fill:#f3bb33;}</style></defs><g class="a"><path class="c" d="M23.5,0A23.5,23.5,0,1,1,0,23.5,23.5,23.5,0,0,1,23.5,0Z"/><path class="d" d="M 23.5 1 C 20.46208000183105 1 17.51556015014648 1.594760894775391 14.74229049682617 2.767749786376953 C 12.06312942504883 3.90093994140625 9.656780242919922 5.523410797119141 7.590099334716797 7.590099334716797 C 5.523410797119141 9.656780242919922 3.90093994140625 12.06312942504883 2.767749786376953 14.74229049682617 C 1.594760894775391 17.51556015014648 1 20.46208000183105 1 23.5 C 1 26.53791999816895 1.594760894775391 29.48443984985352 2.767749786376953 32.25770950317383 C 3.90093994140625 34.93687057495117 5.523410797119141 37.34321975708008 7.590099334716797 39.4099006652832 C 9.656780242919922 41.47658920288086 12.06312942504883 43.09906005859375 14.74229049682617 44.23225021362305 C 17.51556015014648 45.40523910522461 20.46208000183105 46 23.5 46 C 26.53791999816895 46 29.48443984985352 45.40523910522461 32.25770950317383 44.23225021362305 C 34.93687057495117 43.09906005859375 37.34321975708008 41.47658920288086 39.4099006652832 39.4099006652832 C 41.47658920288086 37.34321975708008 43.09906005859375 34.93687057495117 44.23225021362305 32.25770950317383 C 45.40523910522461 29.48443984985352 46 26.53791999816895 46 23.5 C 46 20.46208000183105 45.40523910522461 17.51556015014648 44.23225021362305 14.74229049682617 C 43.09906005859375 12.06312942504883 41.47658920288086 9.656780242919922 39.4099006652832 7.590099334716797 C 37.34321975708008 5.523410797119141 34.93687057495117 3.90093994140625 32.25770950317383 2.767749786376953 C 29.48443984985352 1.594760894775391 26.53791999816895 1 23.5 1 M 23.5 0 C 36.47869110107422 0 47 10.52130889892578 47 23.5 C 47 36.47869110107422 36.47869110107422 47 23.5 47 C 10.52130889892578 47 0 36.47869110107422 0 23.5 C 0 10.52130889892578 10.52130889892578 0 23.5 0 Z"/></g><path class="b" d="M127.134,15.633h3.07V28.879a.463.463,0,0,0,.452.473h5.206a.463.463,0,0,0,.452-.473V15.7h3.53a.46.46,0,0,0,.449-.419l.536-4.877a.489.489,0,0,0-.111-.369.443.443,0,0,0-.337-.158h-4.066V6.815a1.239,1.239,0,0,1,1.407-1.389h2.658a.463.463,0,0,0,.452-.473V.477A.463.463,0,0,0,140.379,0h-3.663c-.026,0-.083,0-.168,0a6.821,6.821,0,0,0-4.59,1.813,5.2,5.2,0,0,0-1.6,4.484V9.872h-3.223a.463.463,0,0,0-.452.473V15.16A.463.463,0,0,0,127.134,15.633Z" transform="translate(-109.649 8.168)"/></svg>