<svg xmlns="http://www.w3.org/2000/svg" xmlns:xlink="http://www.w3.org/1999/xlink" width="122" height="194" viewBox="0 0 122 194"><defs><style>.a{fill:none;}.b{clip-path:url(#a);}.c{fill:#fff;}</style><clipPath id="a"><rect class="a" width="122" height="194" transform="translate(484 2178)"/></clipPath></defs><g class="b" transform="translate(-484 -2178)"><g transform="translate(-985.238 430)"><g transform="translate(1469.238 1748.177)"><g transform="translate(0 0)"><path class="c" d="M20.441,176.325,28,144.55a4.754,4.754,0,0,1-3.619-4.7V134.73c0-11.124,8.615-20.173,19.2-20.173H78.029V103.989a9.707,9.707,0,0,1,9.449-9.927H263.044a9.707,9.707,0,0,1,9.449,9.927v87.1a4.578,4.578,0,1,1-9.144,0v-87.1a.312.312,0,0,0-.3-.32H87.478a.312.312,0,0,0-.3.32v87.1a4.578,4.578,0,1,1-9.144,0v-5.445H24.071A15.059,15.059,0,0,0,9.863,196.53H24.08a4.692,4.692,0,0,1,4.572,4.8V211.58c0,8.3-6.426,15.05-14.326,15.05H9.144v21.134H21.1c3.927-11.913,14.707-20.494,27.365-20.494s23.438,8.581,27.365,20.494h2.2V211.58a4.578,4.578,0,1,1,9.144,0v36.183h94.859c3.927-11.913,14.707-20.494,27.365-20.494s23.438,8.581,27.365,20.494h26.281a.312.312,0,0,0,.3-.32V236.875H243.536a4.809,4.809,0,0,1,0-9.607h43.891a4.809,4.809,0,0,1,0,9.607H272.492v10.567a9.707,9.707,0,0,1-9.449,9.927h-24.7c0,.107.008.213.008.32,0,16.774-12.99,30.42-28.956,30.42s-28.956-13.646-28.956-30.42c0-.108.007-.213.008-.32H77.412c0,.107.008.213.008.32,0,16.774-12.99,30.42-28.956,30.42s-28.956-13.646-28.956-30.42c0-.108.007-.213.008-.32H4.572A4.692,4.692,0,0,1,0,252.566V201.332C0,188.683,8.883,178.174,20.441,176.325Zm57.588-52.163H43.586A10.334,10.334,0,0,0,33.528,134.73v.32h44.5Zm0,51.874V144.656H37.4l-7.468,31.381ZM209.4,278.5c10.924,0,19.812-9.336,19.812-20.814s-8.888-20.814-19.812-20.814-19.812,9.336-19.812,20.814S198.474,278.5,209.4,278.5Zm-160.936,0c10.924,0,19.812-9.336,19.812-20.814s-8.888-20.814-19.812-20.814-19.812,9.336-19.812,20.814S37.539,278.5,48.463,278.5ZM9.143,217.023h5.182a5.324,5.324,0,0,0,5.182-5.444v-5.444H9.144v10.888Z" transform="translate(0 -94.062)"/></g><g transform="translate(199.95 153.702)"><path class="c" d="M137.716,350.6a9.939,9.939,0,1,1-9.449,9.927A9.707,9.707,0,0,1,137.716,350.6Z" transform="translate(-128.267 -350.597)"/></g><g transform="translate(39.014 153.702)"><g transform="translate(0)"><path class="c" d="M419.9,350.6a9.939,9.939,0,1,1-9.449,9.927A9.707,9.707,0,0,1,419.9,350.6Z" transform="translate(-410.455 -350.597)"/></g></g><g transform="translate(97.536 133.209)"><path class="c" d="M209.8,316.393h68.276a4.809,4.809,0,0,1,0,9.607H209.8a4.809,4.809,0,0,1,0-9.607Z" transform="translate(-205.227 -316.393)"/></g><g transform="translate(214.58 112.715)"><g transform="translate(0 0)"><path class="c" d="M21.674,282.188H80.2a4.809,4.809,0,0,1,0,9.607H21.674a4.809,4.809,0,0,1,0-9.607Z" transform="translate(-17.102 -282.188)"/></g></g></g></g></g></svg>