<svg xmlns="http://www.w3.org/2000/svg" xmlns:xlink="http://www.w3.org/1999/xlink" width="121" height="191" viewBox="0 0 121 191"><defs><style>.a{fill:none;stroke:#f3bb33;stroke-width:7px;}.b{clip-path:url(#a);}</style><clipPath id="a"><rect class="a" width="121" height="191" transform="translate(1135 2116)"/></clipPath></defs><g class="b" transform="translate(-1135 -2116)"><g transform="translate(246.54 376.919)"><g transform="translate(894.081 1744.081)"><path class="a" d="M162.293,47.725a7.557,7.557,0,0,0-3.511,10.093,74.8,74.8,0,0,1,7.482,32.872A75.574,75.574,0,1,1,90.689,15.115a74.666,74.666,0,0,1,46.917,16.3,7.557,7.557,0,1,0,9.4-11.831,90.7,90.7,0,1,0,34.368,71.1,89.764,89.764,0,0,0-8.993-39.453A7.549,7.549,0,0,0,162.293,47.725Zm0,0" transform="translate(0)"/><path class="a" d="M183.557,64A7.56,7.56,0,0,0,176,71.557v52.9a7.56,7.56,0,0,0,7.557,7.557h37.787a7.557,7.557,0,0,0,0-15.115h-30.23V71.557A7.56,7.56,0,0,0,183.557,64Zm0,0" transform="translate(-92.868 -33.77)"/></g></g></g></svg>