<svg xmlns="http://www.w3.org/2000/svg" xmlns:xlink="http://www.w3.org/1999/xlink" width="122" height="185" viewBox="0 0 122 185"><defs><style>.a{fill:none;}.a,.c{stroke:#707070;}.b{clip-path:url(#a);}.c{fill:#f3bb33;}</style><clipPath id="a"><rect class="a" width="122" height="185" transform="translate(1658 2109)"/></clipPath></defs><g class="b" transform="translate(-1658 -2109)"><g transform="translate(1358.919 374.75)"><g transform="translate(299.081 1734.25)"><g transform="translate(72.329 14.469)"><path class="c" d="M249.623,40.01a3.612,3.612,0,1,0,3.613,3.613A3.6,3.6,0,0,0,249.623,40.01Z" transform="translate(-246.01 -40.01)"/></g><g transform="translate(0)"><path class="c" d="M194.267,21.7A18.1,18.1,0,0,1,176.185,3.616,3.617,3.617,0,0,0,172.569,0H71.314A3.617,3.617,0,0,0,67.7,3.616,18.1,18.1,0,0,1,49.616,21.7,3.617,3.617,0,0,0,46,25.314V84.327A105.04,105.04,0,0,0,120.9,185a3.616,3.616,0,0,0,2.078,0,105.052,105.052,0,0,0,74.9-100.672V25.314A3.617,3.617,0,0,0,194.267,21.7Zm-3.616,62.63a97.252,97.252,0,0,1-68.709,93.427A97.781,97.781,0,0,1,53.233,84.327V28.673a25.373,25.373,0,0,0,21.44-21.44H169.21a25.373,25.373,0,0,0,21.44,21.44Z" transform="translate(-46)"/></g><g transform="translate(14.465 14.465)"><path class="c" d="M206.787,58.982a32.575,32.575,0,0,1-16.816-16.816A3.616,3.616,0,0,0,186.659,40H161.934a3.616,3.616,0,1,0,0,7.233h22.438A39.755,39.755,0,0,0,201.72,64.581v45.282c0,35.39-21.245,65.925-54.244,78.149-33-12.224-54.244-42.759-54.244-78.149V64.581a39.757,39.757,0,0,0,17.348-17.348h22.438a3.616,3.616,0,1,0,0-7.233H108.294a3.617,3.617,0,0,0-3.312,2.165A32.575,32.575,0,0,1,88.165,58.982,3.617,3.617,0,0,0,86,62.294v47.568a90.023,90.023,0,0,0,60.27,85.4,3.615,3.615,0,0,0,2.413,0,90.023,90.023,0,0,0,60.27-85.4V62.294A3.617,3.617,0,0,0,206.787,58.982Z" transform="translate(-86 -40)"/></g><g transform="translate(43.395 52.797)"><g transform="translate(0)"><path class="c" d="M198.546,146a32.546,32.546,0,1,0,32.546,32.546A32.583,32.583,0,0,0,198.546,146Zm0,57.86a25.314,25.314,0,1,1,25.314-25.314A25.342,25.342,0,0,1,198.546,203.86Z" transform="translate(-166 -146)"/></g></g><g transform="translate(61.476 74.495)"><path class="c" d="M247.487,207.059a3.617,3.617,0,0,0-5.114,0l-15.524,15.524-4.675-4.675a3.616,3.616,0,0,0-5.114,5.115l7.232,7.233a3.617,3.617,0,0,0,5.115,0l18.081-18.081A3.617,3.617,0,0,0,247.487,207.059Z" transform="translate(-215.999 -206)"/></g></g></g></g></svg>