<svg xmlns="http://www.w3.org/2000/svg" width="14.762" height="14.762" viewBox="0 0 14.762 14.762"><defs><style>.a{fill:#fff;}</style></defs><path class="a" d="M7.381,0a7.382,7.382,0,0,0-6.4,11.055L.028,14.008a.577.577,0,0,0,.726.726l2.953-.951A7.381,7.381,0,1,0,7.381,0Zm0,13.608a6.209,6.209,0,0,1-3.3-.944A.577.577,0,0,0,3.6,12.6l-2.132.687.687-2.132a.577.577,0,0,0-.06-.482,6.228,6.228,0,1,1,5.284,2.931ZM8.1,7.381a.721.721,0,1,1-.721-.721A.721.721,0,0,1,8.1,7.381Zm2.883,0a.721.721,0,1,1-.721-.721A.721.721,0,0,1,10.985,7.381Zm-5.766,0A.721.721,0,1,1,4.5,6.66.721.721,0,0,1,5.218,7.381Zm0,0"/></svg>