<svg xmlns="http://www.w3.org/2000/svg" width="30.456" height="30.456" viewBox="0 0 30.456 30.456"><defs><style>.a{fill:none;}.b,.c{stroke:none;}.c{fill:#fff;}</style></defs><g class="a"><path class="b" d="M15.228,0A15.228,15.228,0,1,1,0,15.228,15.228,15.228,0,0,1,15.228,0Z"/><path class="c" d="M 15.22778224945068 1.000001907348633 C 11.42740249633789 1.000001907348633 7.8544921875 2.479951858520508 5.16722297668457 5.16722297668457 C 2.479951858520508 7.8544921875 1.000001907348633 11.42740249633789 1.000001907348633 15.22778224945068 C 1.000001907348633 19.02816200256348 2.479951858520508 22.60107231140137 5.16722297668457 25.2883415222168 C 7.8544921875 27.97561264038086 11.42740249633789 29.45556259155273 15.22778224945068 29.45556259155273 C 19.02816200256348 29.45556259155273 22.60107231140137 27.97561264038086 25.2883415222168 25.2883415222168 C 27.97561264038086 22.60107231140137 29.45556259155273 19.02816200256348 29.45556259155273 15.22778224945068 C 29.45556259155273 11.42740249633789 27.97561264038086 7.8544921875 25.2883415222168 5.16722297668457 C 22.60107231140137 2.479951858520508 19.02816200256348 1.000001907348633 15.22778224945068 1.000001907348633 M 15.22778224945068 1.9073486328125e-06 C 23.63785171508789 1.9073486328125e-06 30.45556259155273 6.817712783813477 30.45556259155273 15.22778224945068 C 30.45556259155273 23.63785171508789 23.63785171508789 30.45556259155273 15.22778224945068 30.45556259155273 C 6.817712783813477 30.45556259155273 1.9073486328125e-06 23.63785171508789 1.9073486328125e-06 15.22778224945068 C 1.9073486328125e-06 6.817712783813477 6.817712783813477 1.9073486328125e-06 15.22778224945068 1.9073486328125e-06 Z"/></g></svg>