<svg xmlns="http://www.w3.org/2000/svg" width="30.061" height="30.061" viewBox="0 0 30.061 30.061"><defs><style>.a{fill:none;}.b,.c{stroke:none;}.c{fill:#fff;}</style></defs><g class="a"><path class="b" d="M15.031,0A15.031,15.031,0,1,1,0,15.031,15.031,15.031,0,0,1,15.031,0Z"/><path class="c" d="M 15.03051853179932 0.9999980926513672 C 11.28282928466797 0.9999980926513672 7.759458541870117 2.459428787231445 5.109437942504883 5.109437942504883 C 2.459428787231445 7.759458541870117 0.9999980926513672 11.28282928466797 0.9999980926513672 15.03051853179932 C 0.9999980926513672 18.7782096862793 2.459428787231445 22.30157852172852 5.109437942504883 24.95159912109375 C 7.759458541870117 27.60160827636719 11.28282928466797 29.06103897094727 15.03051853179932 29.06103897094727 C 18.7782096862793 29.06103897094727 22.30157852172852 27.60160827636719 24.95159912109375 24.95159912109375 C 27.60160827636719 22.30157852172852 29.06103897094727 18.7782096862793 29.06103897094727 15.03051853179932 C 29.06103897094727 11.28282928466797 27.60160827636719 7.759458541870117 24.95159912109375 5.109437942504883 C 22.30157852172852 2.459428787231445 18.7782096862793 0.9999980926513672 15.03051853179932 0.9999980926513672 M 15.03051853179932 -1.9073486328125e-06 C 23.3316478729248 -1.9073486328125e-06 30.06103897094727 6.729389190673828 30.06103897094727 15.03051853179932 C 30.06103897094727 23.3316478729248 23.3316478729248 30.06103897094727 15.03051853179932 30.06103897094727 C 6.729389190673828 30.06103897094727 -1.9073486328125e-06 23.3316478729248 -1.9073486328125e-06 15.03051853179932 C -1.9073486328125e-06 6.729389190673828 6.729389190673828 -1.9073486328125e-06 15.03051853179932 -1.9073486328125e-06 Z"/></g></svg>