<svg xmlns="http://www.w3.org/2000/svg" width="56" height="47" viewBox="0 0 56 47"><defs><style>.a{fill:none;stroke:#fff;stroke-width:2px;}</style></defs><g transform="translate(1 1)"><path class="a" d="M23.75,12.125a2.251,2.251,0,0,1-2.25-2.25V6.5h-9V9.875a2.25,2.25,0,1,1-4.5,0V6.5A4.5,4.5,0,0,1,12.5,2h9A4.5,4.5,0,0,1,26,6.5V9.875A2.251,2.251,0,0,1,23.75,12.125Z" transform="translate(10 -2)"/><path class="a" d="M28.6,20.08a4.635,4.635,0,0,1-1.6.27,4.93,4.93,0,0,1-1.733-.315L0,11.62V28.787a6.184,6.184,0,0,0,6.187,6.187H47.812A6.184,6.184,0,0,0,54,28.787V11.62Z" transform="translate(0 10.025)"/><path class="a" d="M54,11.187V16.34L27.54,25.16a1.665,1.665,0,0,1-1.08,0L0,16.34V11.187A6.184,6.184,0,0,1,6.187,5H47.812A6.184,6.184,0,0,1,54,11.187Z" transform="translate(0 1.75)"/></g></svg>